# xmcd
#
# Track frame offsets:
# 150
# 20398
# 42905
# 60402
# 83291
# 99728
# 125185
# 141702
# 159744
# 182856
# 201577
# 224906
# 242946
# 263317
#
# Disc length: 3828 seconds
#
# Revision: 0
# Processed by: cddbd v1.5.2PL0 Copyright (c) Steve Scherf et al.
# Submitted via: Audion 3.0.2 (http://www.panic.com/audion/)
#
DISCID=d50ef20e
DTITLE=Ruben Amirbekyan - Ruben Amirbekyan
DYEAR=1900
DGENRE=
TTITLE0=Ktornm erkinc
TTITLE1=Nrina
TTITLE2=Garun Erevan
TTITLE3=Azavniner
TTITLE4=Spasum
TTITLE5=Aracs
TTITLE6=Hishoxutium
TTITLE7=Dimakahandes
TTITLE8=Hai achcer
TTITLE9=Garun
TTITLE10=Nokturn
TTITLE11=Bazvangi
TTITLE12=Erevani Sirun Tza
TTITLE13=Anurgner
EXTD=
EXTT0=
EXTT1=
EXTT2=
EXTT3=
EXTT4=
EXTT5=
EXTT6=
EXTT7=
EXTT8=
EXTT9=
EXTT10=
EXTT11=
EXTT12=
EXTT13=
PLAYORDER=
